<svg xmlns="http://www.w3.org/2000/svg" id="Layer_1" height="512" viewBox="0 0 48 48" width="512" data-name="Layer 1"><path d="m31.7 6.727.414 1.106.414-1.106a3.448 3.448 0 0 1 2.022-2.021l1.1-.414-1.1-.414a3.45 3.45 0 0 1 -2.02-2.022l-.414-1.106-.416 1.106a3.45 3.45 0 0 1 -2.02 2.022l-1.106.414 1.106.414a3.448 3.448 0 0 1 2.02 2.021z"></path><path d="m39.377 10.794.313.838.31-.838a2.613 2.613 0 0 1 1.533-1.533l.838-.314-.838-.314a2.613 2.613 0 0 1 -1.533-1.533l-.314-.838-.313.838a2.618 2.618 0 0 1 -1.533 1.533l-.839.314.839.314a2.618 2.618 0 0 1 1.537 1.533z"></path><path d="m44.062 6.138.313.839.314-.839a2.618 2.618 0 0 1 1.533-1.533l.838-.313-.838-.314a2.613 2.613 0 0 1 -1.533-1.533l-.314-.838-.313.838a2.618 2.618 0 0 1 -1.533 1.533l-.839.314.839.313a2.624 2.624 0 0 1 1.533 1.533z"></path><path d="m39.881 44.153v2.083a1.014 1.014 0 0 0 1.019 1.014h3.9a1.014 1.014 0 0 0 1.014-1.014v-4.015a6.578 6.578 0 0 1 -4.936 1.932z"></path><path d="m2.132 42.162v4.074a1.014 1.014 0 0 0 1.014 1.014h3.9a1.014 1.014 0 0 0 1.014-1.014v-2.083h-.935a6.554 6.554 0 0 1 -4.993-1.991z"></path><path d="m2.161 38.1c0 2.874 2 4.549 4.964 4.549h33.751c2.96 0 4.964-1.675 4.964-4.549v-.83h-43.679z"></path><path d="m46.3 19.6-2.5-.434a.9.9 0 0 0 -.982.532l-.778 1.759-.316-.482-2.192-5.175a5.367 5.367 0 0 0 -4.095-3.216 73.775 73.775 0 0 0 -11.437-.835 73.749 73.749 0 0 0 -11.436.838 5.368 5.368 0 0 0 -4.1 3.216l-2.187 5.167-.311.475-.783-1.752a.9.9 0 0 0 -.982-.532l-2.501.439a.984.984 0 0 0 -.827.973v.491a.988.988 0 0 0 .777.965l3.424.783-1.64 2.5a7.768 7.768 0 0 0 -1.272 4.26v6.2h43.678v-6.2a7.769 7.769 0 0 0 -1.273-4.26l-1.646-2.512 3.43-.773a.988.988 0 0 0 .777-.965v-.491a.984.984 0 0 0 -.828-.971zm-36.451-3.211a3.847 3.847 0 0 1 2.951-2.321 72.4 72.4 0 0 1 11.2-.819 72.4 72.4 0 0 1 11.2.819 3.848 3.848 0 0 1 2.949 2.32l1.685 3.974h-31.67zm-3.181 14.5a1.483 1.483 0 0 1 -1.229-1.125 3.247 3.247 0 0 1 -.105-1.035c.081-.9.364-1.343.936-1.343 0 0 3.922.244 4.452.407s2.564 4.03 2.564 4.03zm25.124 1.5-7.84.448-7.744-.437-1.975-4.189s6.957.606 9.766.606 9.768-.606 9.768-.606zm10.768-2.621a1.483 1.483 0 0 1 -1.229 1.125l-6.618.934s2.035-3.867 2.565-4.03 4.451-.407 4.451-.407c.573 0 .855.447.936 1.343a3.247 3.247 0 0 1 -.105 1.035z"></path></svg>