<svg xmlns="http://www.w3.org/2000/svg" id="Group_556" data-name="Group 556" width="142" height="62.359" viewBox="0 0 142 62.359"><path id="Subtraction_27" data-name="Subtraction 27" d="M11.368,22.737a11.368,11.368,0,1,1,8.039-3.329A11.381,11.381,0,0,1,11.368,22.737Zm0-18.019a6.65,6.65,0,1,0,6.65,6.65A6.657,6.657,0,0,0,11.368,4.718Z" transform="translate(100.412 39.622)" fill="#fff"></path><path id="Subtraction_26" data-name="Subtraction 26" d="M11.368,22.737a11.368,11.368,0,1,1,8.039-3.329A11.381,11.381,0,0,1,11.368,22.737Zm0-18.019a6.65,6.65,0,1,0,6.65,6.65A6.657,6.657,0,0,0,11.368,4.718Z" transform="translate(18.044 39.622)" fill="#fff"></path><path id="Subtraction_25" data-name="Subtraction 25" d="M14.658,51.577H0V37.742c.09-3.407,1.948-6.547,5.524-9.335A42.463,42.463,0,0,1,17.551,22.33a109.33,109.33,0,0,1,19.835-4.622c.168-.023.269-.038.282-.041A35.131,35.131,0,0,1,47.756,7.824,46.977,46.977,0,0,1,59,2.538,53.563,53.563,0,0,1,71.907,0h54.25a32.276,32.276,0,0,1,4.637,5.233,67.326,67.326,0,0,1,8.962,17.3,55.716,55.716,0,0,1,2.231,16.083,23.3,23.3,0,0,1-.672,5.553l-15.158,5.557a16.2,16.2,0,0,0-2.128-6.54c-1.762-2.984-5.367-6.54-12.537-6.54S100.8,40.705,99.1,44.111a20.194,20.194,0,0,0-1.987,7.464H44.652a17.235,17.235,0,0,0-.447-3.811,15,15,0,0,0-3.673-7.128c-2.575-2.648-6.212-3.991-10.808-3.991s-8.248,1.343-10.848,3.993a15.159,15.159,0,0,0-3.737,7.127,17.218,17.218,0,0,0-.481,3.81ZM111.565,5.76h0V18.254h19.008L123.421,5.76Zm-30.889,0h0V18.254H107.7V5.76Zm-6.029,0h0A61.31,61.31,0,0,0,63.2,7.728a44.7,44.7,0,0,0-9.64,3.759,24.383,24.383,0,0,0-8.109,6.766H76.816V5.76H74.647Z" transform="translate(0 0)" fill="#fff"></path><path id="Path_200" data-name="Path 200" d="M14599.752-19944.117h-7.639v3.221l3.574,1.121,1.539,4.7,3.714-.49a20.984,20.984,0,0,0,0-4.623A14.257,14.257,0,0,0,14599.752-19944.117Z" transform="translate(-14461.356 19970.52)" fill="#ff4605"></path><path id="Path_201" data-name="Path 201" d="M14894.982-19926.959c2.841-.807,9.336,0,9.336,0v4.016l-5.368,1.4v2.646h-6.769a16.327,16.327,0,0,1,.227-4.814A4.158,4.158,0,0,1,14894.982-19926.959Z" transform="translate(-14889.148 19959.125)" fill="#ff4605"></path><path id="Path_267" data-name="Path 267" d="M13596.381-20971.385l48.17,33.518-53.191.027Z" transform="translate(-13548.71 20989.422)" fill="#f1efef"></path></svg>