<svg xmlns="http://www.w3.org/2000/svg" width="28" height="44.654" viewBox="0 0 28 44.654"><g id="money2" transform="translate(-91.358)"><g id="Group_568" data-name="Group 568" transform="translate(91.358)"><g id="Group_564" data-name="Group 564" transform="translate(0)"><path id="Path_288" data-name="Path 288" d="M118.257,24.848c-.5-.392-5.733-6.2-7.146-7.019V2.762A2.76,2.76,0,0,0,108.348,0H94.12a2.76,2.76,0,0,0-2.762,2.762V29.141A2.76,2.76,0,0,0,94.12,31.9h6.2l-.255-2.169c-.082-.073-.137-.118-.219-.191H97.11a2.8,2.8,0,0,0-3.4-3.409V5.6a3.126,3.126,0,0,0,.51.046,2.8,2.8,0,0,0,2.8-2.8,3,3,0,0,0-.046-.492h8.5a3,3,0,0,0-.046.492,2.793,2.793,0,0,0,2.8,2.8,3.126,3.126,0,0,0,.51-.046V25.641h0V31.4a10.463,10.463,0,0,1-2.042-2.935s-.529-5.916-3.528-5.916a2.059,2.059,0,0,0-.237.009s-2.27.191-.392,6.681l.839,7.21a16.375,16.375,0,0,0,3.528,6.618v.8a.784.784,0,0,0,.784.784h8.431a.78.78,0,0,0,.775-.693c.3-2.807,1.468-13.244,2.151-14.83a2.992,2.992,0,0,0,.237-.784A3.6,3.6,0,0,0,118.257,24.848Z" transform="translate(-91.358 0)" fill="#0575ff"></path></g><g id="Group_565" data-name="Group 565" transform="translate(8.504 5.642)"><circle id="Ellipse_125" data-name="Ellipse 125" cx="1.677" cy="1.677" r="1.677" fill="#0575ff"></circle></g><path id="Union_22" data-name="Union 22" d="M-16320,20218.059a6.054,6.054,0,0,1,6.055-6.059,6.063,6.063,0,0,1,6.061,6.059,6.066,6.066,0,0,1-1.913,4.422,4.662,4.662,0,0,0-2.2-.543,3.734,3.734,0,0,0-.492.025,3.5,3.5,0,0,0-2.518,1.578,4.23,4.23,0,0,0-.264.436A6.072,6.072,0,0,1-16320,20218.059Z" transform="translate(16323.819 -20201.918)" fill="#0575ff"></path></g></g></svg>