<svg xmlns="http://www.w3.org/2000/svg" xmlns:xlink="http://www.w3.org/1999/xlink" id="Capa_1" x="0px" y="0px" viewBox="0 0 220.089 220.089" style="enable-background:new 0 0 220.089 220.089;" xml:space="preserve">
<path d="M215.089,65.076h-5.246l-20.387-25.777V25.052c0-10.314-8.391-18.706-18.706-18.706H49.339  c-10.314,0-18.705,8.392-18.705,18.706v14.247L10.247,65.076H5c-2.761,0-5,2.238-5,5v31c0,2.762,2.239,5,5,5h15.333  c2.761,0,5-2.238,5-5v-31c0-1.956-1.134-3.631-2.77-4.453l8.07-10.204v117.014c0,6.767,3.624,12.689,9.021,15.974v20.336  c0,2.762,2.239,5,5,5h16.263c2.761,0,5-2.238,5-5v-17.604h88.253v17.604c0,2.762,2.239,5,5,5h16.262c2.761,0,5-2.238,5-5v-20.336  c5.398-3.285,9.022-9.207,9.022-15.974V55.419l8.07,10.204c-1.636,0.822-2.77,2.497-2.77,4.453v31c0,2.762,2.239,5,5,5h15.333  c2.761,0,5-2.238,5-5v-31C220.089,67.314,217.85,65.076,215.089,65.076z M163.628,96.357H56.461c-2.604,0-4.722-2.118-4.722-4.722  v-38.26c0-2.604,2.118-4.723,4.722-4.723h107.167c2.604,0,4.722,2.118,4.722,4.723v38.26  C168.351,94.239,166.232,96.357,163.628,96.357z M62.327,156.364c-5.838,0-10.588-4.75-10.588-10.588  c0-5.839,4.75-10.589,10.588-10.589c5.838,0,10.588,4.75,10.588,10.589C72.915,151.614,68.165,156.364,62.327,156.364z   M147.174,145.776c0-5.839,4.75-10.589,10.588-10.589s10.588,4.75,10.588,10.589c0,5.838-4.75,10.588-10.588,10.588  S147.174,151.614,147.174,145.776z M121.249,21.708h45.192c2.761,0,5,2.238,5,5s-2.239,5-5,5h-45.192c-2.761,0-5-2.238-5-5  S118.488,21.708,121.249,21.708z M53.648,21.708H98.84c2.761,0,5,2.238,5,5s-2.239,5-5,5H53.648c-2.761,0-5-2.238-5-5  S50.887,21.708,53.648,21.708z M131.333,172.392H88.756c-2.761,0-5-2.238-5-5s2.239-5,5-5h42.578c2.761,0,5,2.238,5,5  S134.095,172.392,131.333,172.392z M131.333,153.79H88.756c-2.761,0-5-2.238-5-5s2.239-5,5-5h42.578c2.761,0,5,2.238,5,5  S134.095,153.79,131.333,153.79z M131.333,135.187H88.756c-2.761,0-5-2.238-5-5s2.239-5,5-5h42.578c2.761,0,5,2.238,5,5  S134.095,135.187,131.333,135.187z"></path>
<g>
</g>
<g>
</g>
<g>
</g>
<g>
</g>
<g>
</g>
<g>
</g>
<g>
</g>
<g>
</g>
<g>
</g>
<g>
</g>
<g>
</g>
<g>
</g>
<g>
</g>
<g>
</g>
<g>
</g>
</svg>