<svg xmlns="http://www.w3.org/2000/svg" xmlns:xlink="http://www.w3.org/1999/xlink" id="Capa_1" x="0px" y="0px" viewBox="0 0 409.6 409.6" style="enable-background:new 0 0 409.6 409.6;" xml:space="preserve">
<g>
	<g>
		<path d="M187.735,273.085c-28.268,0-51.2,22.917-51.2,51.2c0,28.278,22.932,51.2,51.2,51.2c28.278,0,51.2-22.922,51.2-51.2    C238.935,296.003,216.013,273.085,187.735,273.085z"></path>
	</g>
</g>
<g>
	<g>
		<path d="M341.335,34.115L170.701,34.15c-75.387,0-136.566,61.082-136.566,136.53v119.47H0v34.135h102.4    c0-47.048,38.287-85.335,85.335-85.335c47.048,0,85.33,38.287,85.33,85.335H409.6V102.4    C409.6,64.701,379.064,34.115,341.335,34.115z M238.935,170.665c0,9.385-7.685,17.065-17.07,17.065H102.4    c-9.385,0-17.065-7.68-17.065-17.065V136.53c0-9.38,7.68-17.065,17.065-17.065h119.465c9.385,0,17.07,7.685,17.07,17.065V170.665z     M375.465,273.065c0,9.385-7.68,17.07-17.065,17.07h-34.135c-9.38,0-17.065-7.685-17.065-17.07v-102.4    c0-9.385,7.685-17.065,17.065-17.065H358.4c9.385,0,17.065,7.68,17.065,17.065V273.065z M375.465,119.465H307.2V85.33h68.265    V119.465z"></path>
	</g>
</g>
<g>
</g>
<g>
</g>
<g>
</g>
<g>
</g>
<g>
</g>
<g>
</g>
<g>
</g>
<g>
</g>
<g>
</g>
<g>
</g>
<g>
</g>
<g>
</g>
<g>
</g>
<g>
</g>
<g>
</g>
</svg>